<svg width="253" height="160" viewBox="0 0 253 160" fill="none" xmlns="http://www.w3.org/2000/svg">
<path fill-rule="evenodd" clip-rule="evenodd" d="M93.1182 0L77.7837 15.7379L58.9655 2.95212L51.4375 22.7594L17.5638 17.1352L28.2284 40.7759L3.29152 50.0929L18.8187 72.723L0 98.9189L33.8737 102.114L3.49044 160L51.3011 123.838L63.4371 144.284L75.9838 126.386L97.1981 147.227L111.747 127.807L139.946 135.23L140.549 108.504L166.696 104.698L156.628 79.7801L174.078 64.7722L156.388 49.403L161.66 27.9969L131.823 29.9142L125.904 6.14701L104.346 18.9119L93.1182 0Z" fill="#FB3254"/>
<path fill-rule="evenodd" clip-rule="evenodd" d="M88.804 71.4094L86.9035 96.6803C84.4163 97.9624 81.4953 98.9476 78.1411 99.6351C74.7857 100.323 71.1838 100.667 67.3369 100.667C62.3154 100.667 57.9631 99.6703 54.2804 97.6773C50.5961 95.6843 47.7575 92.8366 45.764 89.1346C43.7688 85.4333 42.7724 81.0902 42.7724 76.1072C42.7724 70.6022 43.8865 65.7853 46.1159 61.6565C48.3437 57.5278 51.5113 54.3365 55.6176 52.0817C59.7228 49.8285 64.5219 48.7006 70.0114 48.7006C77.7062 48.7006 83.8531 50.5513 88.452 54.2532L83.6664 63.7209C81.6477 62.1554 79.6537 61.0053 77.6832 60.2689C75.7121 59.5338 73.4356 59.1648 70.8559 59.1648C66.1158 59.1648 62.4684 60.6601 59.9111 63.6506C57.3533 66.6395 56.0755 70.8165 56.0755 76.1787C56.0755 80.8306 57.1661 84.3897 59.3479 86.8571C61.5302 89.3251 64.8256 90.5585 69.2374 90.5585C71.2079 90.5585 73.3196 90.2734 75.5715 89.7043L76.2754 80.4503H67.4776L68.1815 71.4094H88.804Z" fill="white"/>
<path fill-rule="evenodd" clip-rule="evenodd" d="M129.38 85.8601C131.609 82.776 132.724 78.5277 132.724 73.1179C132.724 68.6093 131.714 65.1091 129.697 62.6179C127.679 60.1262 124.864 58.8803 121.251 58.8803C117.355 58.8803 114.306 60.4232 112.101 63.5073C109.894 66.5937 108.793 70.8398 108.793 76.2501C108.793 80.8057 109.789 84.3184 111.784 86.7858C113.778 89.2537 116.629 90.4872 120.336 90.4872C124.137 90.4872 127.151 88.9459 129.38 85.8601ZM107.315 97.784C103.56 95.8154 100.674 92.9796 98.657 89.2776C96.6394 85.5756 95.6306 81.2332 95.6306 76.2502C95.6306 70.7452 96.6747 65.9045 98.7629 61.7281C100.85 57.5523 103.819 54.3242 107.667 52.0467C111.513 49.7686 115.972 48.6298 121.039 48.6298C126.06 48.6298 130.447 49.6155 134.202 51.5836C137.955 53.5539 140.841 56.3886 142.859 60.0911C144.876 63.7919 145.885 68.1349 145.885 73.1179C145.885 78.6241 144.84 83.4642 142.753 87.64C140.665 91.8164 137.697 95.0434 133.85 97.3215C130.002 99.599 125.544 100.739 120.477 100.739C115.455 100.739 111.068 99.7543 107.315 97.784Z" fill="white"/>
<path fill-rule="evenodd" clip-rule="evenodd" d="M188.045 49.3414H200.363L196.421 100.027H186.567L166.156 71.7656L163.903 100.027H151.656L155.598 49.3414H165.24L185.722 77.6737L188.045 49.3414Z" fill="white"/>
<path fill-rule="evenodd" clip-rule="evenodd" d="M252.235 71.4094L250.335 96.6803C247.848 97.9624 244.927 98.9476 241.572 99.6351C238.217 100.323 234.615 100.667 230.768 100.667C225.747 100.667 221.395 99.6703 217.712 97.6773C214.027 95.6843 211.189 92.8366 209.195 89.1346C207.2 85.4333 206.204 81.0902 206.204 76.1072C206.204 70.6022 207.318 65.7853 209.547 61.6565C211.776 57.5278 214.943 54.3365 219.049 52.0817C223.154 49.8285 227.953 48.7006 233.443 48.7006C241.138 48.7006 247.284 50.5513 251.884 54.2532L247.098 63.7209C245.08 62.1554 243.085 61.0053 241.115 60.2689C239.144 59.5338 236.868 59.1648 234.288 59.1648C229.548 59.1648 225.9 60.6601 223.342 63.6506C220.785 66.6395 219.506 70.8165 219.506 76.1787C219.506 80.8306 220.597 84.3897 222.779 86.8571C224.962 89.3251 228.257 90.5585 232.669 90.5585C234.639 90.5585 236.751 90.2734 239.003 89.7043L239.707 80.4503H230.909L231.613 71.4094H252.235Z" fill="white"/>
</svg>
